<?xml version="1.0"?>
<svg xmlns="http://www.w3.org/2000/svg" viewBox="0 0 32 32">
    <path style="text-indent:0;text-align:start;line-height:normal;text-transform:none;block-progression:tb;-inkscape-font-specification:Sans" d="M 3.71875 2.28125 L 2.28125 3.71875 L 9.65625 11.09375 C 9.651468 11.09991 9.6610145 11.118826 9.65625 11.125 L 11.09375 12.53125 C 11.08902 12.537902 11.098453 12.555828 11.09375 12.5625 L 13.28125 14.71875 C 13.277483 14.726686 13.284949 14.742026 13.28125 14.75 L 28.28125 29.71875 L 29.71875 28.28125 L 23.46875 22.03125 C 27.504309 19.833983 29.8125 16.59375 29.8125 16.59375 L 30.21875 16 L 29.8125 15.40625 C 29.8125 15.40625 24.946364 8.6086228 17 8.0625 C 16.671565 8.0212567 16.33943 8 16 8 C 15.677875 8 15.374576 8.0251621 15.0625 8.0625 C 13.410868 8.170731 11.869451 8.5274693 10.5 9.0625 L 3.71875 2.28125 z M 16 10 C 19.309 10 22 12.691 22 16 C 22 17.290601 21.60298 18.490108 20.90625 19.46875 L 18.71875 17.25 C 18.898715 16.866656 19 16.45225 19 16 C 19 14.343 17.657 13 16 13 C 15.54775 13 15.133344 13.101285 14.75 13.28125 L 12.53125 11.09375 C 13.284233 10.557675 14.170787 10.203118 15.125 10.0625 C 15.417645 10.041864 15.698657 10 16 10 z M 6.78125 11.0625 C 3.91525 13.0515 2.2755 15.28425 2.1875 15.40625 L 1.78125 16 L 2.1875 16.59375 C 2.3975605 16.885341 7.2007235 23.402681 15 23.9375 C 15.328435 23.978743 15.66057 24 16 24 C 16.273211 24 16.539978 23.984831 16.8125 23.96875 C 16.866208 23.963301 16.915361 23.944013 16.96875 23.9375 C 17.755086 23.882231 18.535049 23.774141 19.3125 23.59375 L 19.09375 23.375 L 17.59375 21.875 C 17.583261 21.876341 17.572991 21.873677 17.5625 21.875 L 17.5 21.8125 C 17.016 21.9395 16.524 22 16 22 C 15.780144 22 15.558964 21.980063 15.34375 21.96875 C 12.336425 21.646702 10 19.091567 10 16 C 10 15.476 10.0605 14.984 10.1875 14.5 L 8.625 12.90625 C 8.224 13.85725 8 14.904 8 16 C 8 17.47425 8.4264922 18.843944 9.125 20.03125 C 6.7500561 18.648784 5.0483588 16.896816 4.28125 16 C 4.94925 15.217 6.30875 13.772 8.21875 12.5 L 6.78125 11.0625 z M 22.84375 11.90625 C 25.522418 13.458935 27.190439 15.476644 27.625 16.03125 C 27.067093 16.731361 25.533558 18.579027 22.875 20.09375 C 23.589674 18.89925 24 17.491249 24 16 C 24 14.500893 23.56421 13.106855 22.84375 11.90625 z" overflow="visible" font-family="Sans"/>
</svg>
