<?xml version="1.0"?>
<svg xmlns="http://www.w3.org/2000/svg" viewBox="0 0 50 50" enable-background="new 0 0 50 50">
    <path d="M 19.96875 1.03125 C 19.048437 1.015625 18.33125 1.2625 17.90625 1.8125 C 15.80625 4.7125 23.8 6.30625 28 8.90625 C 28 8.90625 28.69375 9.30625 29.59375 9.90625 C 30.59375 9.10625 31.79375 8.4 33.09375 8 C 32.39375 7.4 31.5875 6.70625 30.6875 5.90625 C 27.2375 3.35625 22.729688 1.078125 19.96875 1.03125 z M 16.03125 6.15625 C 14.910645 6.2521973 14.15625 6.71875 14 7.6875 C 13.5 11.3875 19.89375 12.4125 23.59375 13.8125 C 24.49375 14.2125 25.4125 14.59375 26.3125 15.09375 C 26.5125 14.29375 26.79375 13.5125 27.09375 12.8125 C 27.39375 12.1125 27.9125 11.6 28.3125 11 C 27.8125 10.7 27.1875 10.3 26.6875 10 C 22.76875 7.59375 18.496582 5.945166 16.03125 6.15625 z M 36.90625 9.1875 C 33.30625 9.1875 30.2125 10.8875 28.8125 13.6875 C 27.9125 15.6875 27.80625 17.8125 28.40625 19.8125 C 29.10625 22.0125 30.79375 23.8 33.09375 25 C 34.69375 25.8 37.0875 26.1875 39.6875 26.1875 C 43.2875 26.1875 47.59375 25.30625 48.59375 22.90625 C 50.19375 19.00625 45.9 12.3875 41.5 10.1875 C 40.1 9.4875 38.50625 9.1875 36.90625 9.1875 z M 40.5 17.3125 C 41.3 17.3125 42 18.0125 42 18.8125 C 42 19.6125 41.3 20.3125 40.5 20.3125 C 39.7 20.3125 39 19.6125 39 18.8125 C 39 18.0125 39.7 17.3125 40.5 17.3125 z M 19.625 18.625 C 17.925781 18.620117 16.0625 18.875 14.1875 19.8125 C 4.5875 24.3125 4.50625 34.30625 5.90625 38.40625 C 6.20625 39.40625 7.0875 39.79375 7.6875 40.09375 C 8.5875 40.49375 9.3875 40.89375 8.1875 44.59375 C 7.7875 45.79375 8.1 46.5 8.5 47 C 9.7 48.6 12.7875 48.3875 16.6875 48.1875 C 17.9875 48.0875 19.3 48.09375 20.5 48.09375 C 21.8 48.09375 23.50625 48.0875 25.40625 48.1875 C 27.90625 48.2875 29.8125 48.3125 31.3125 48.3125 C 34.6125 48.3125 35.99375 48.1 36.59375 47.5 C 36.79375 47.3 37 46.89375 37 46.59375 L 37 46.40625 C 37 45.90625 37.0875 44.80625 36.1875 43.90625 C 35.3875 43.00625 33.49375 41.9 27.09375 41.5 C 28.09375 40.9 28.9875 40.19375 29.6875 39.09375 C 29.6875 38.99375 29.7125 39.00625 29.8125 38.90625 C 30.3125 38.00625 30.50625 35.8875 29.40625 34.1875 C 28.20625 32.2875 25.6 31.3125 22 31.3125 C 21.4 31.3125 21 30.9125 21 30.3125 C 21 29.7125 21.4 29.3125 22 29.3125 C 27.5 29.3125 29.99375 31.3875 31.09375 33.1875 C 32.39375 35.1875 32.4125 37.5875 31.8125 39.1875 L 32.40625 40.09375 C 35.50625 40.69375 36.79375 41.6 37.59375 42.5 C 39.09375 44.1 39 45.8 39 46.5 L 39 46.6875 C 39 47.1875 38.79375 47.6875 38.59375 48.1875 L 39.09375 48.1875 L 40 48.1875 L 40.59375 48.1875 C 44.39375 48.1875 45.9875 48.10625 46.6875 47.40625 C 46.9875 47.10625 47.09375 46.8 47.09375 46.5 C 47.09375 42.8 44.00625 42.3 42.40625 42 C 41.90625 41.9 41.19375 41.7875 41.09375 41.6875 C 40.99375 41.4875 40.70625 40.19375 40.40625 39.09375 C 40.10625 38.09375 39.8 36.8875 39.5 35.6875 C 38.9 33.5875 39.5125 32.60625 40.3125 31.40625 C 40.8125 30.60625 41.39375 29.5875 41.59375 28.1875 C 40.99375 28.1875 40.40625 28.3125 39.90625 28.3125 C 36.90625 28.3125 34.30625 27.80625 32.40625 26.90625 C 29.60625 25.50625 27.5875 23.29375 26.6875 20.59375 C 26.4875 19.99375 26.4125 19.2875 26.3125 18.6875 C 25.4125 18.9875 24.2 18.9125 22.5 18.8125 C 21.6 18.7375 20.644531 18.62793 19.625 18.625 z M 3.40625 34.90625 C 1.90625 35.70625 1 37.0875 1 38.6875 C 1 41.1875 3 43.1875 5.5 43.1875 C 5.8 43.1875 6.19375 43.19375 6.59375 43.09375 C 6.79375 42.39375 6.90625 42.0125 6.90625 41.8125 C 6.20625 41.5125 4.69375 40.8 4.09375 39 C 3.69375 37.9 3.40625 36.50625 3.40625 34.90625 z"/>
</svg>
